<svg width="24" height="22" viewBox="0 0 24 22" fill="none" xmlns="http://www.w3.org/2000/svg">
<g clip-path="url(#clip0_418_101)">
<path d="M2.93164 17.0014C3.95245 13.8328 7.49979 10.5017 12.49 10.729C14.6989 10.8298 16.6522 11.6057 18.327 13.0285C19.6153 14.1233 20.5435 15.4604 21.0981 17.0156C20.0943 17.0156 19.11 16.9898 18.1282 17.0214C16.0909 17.0872 14.1189 17.4718 12.2395 18.2702C12.1198 18.321 11.9431 18.3477 11.8319 18.2994C9.54141 17.3053 7.12952 16.9698 4.64714 16.9998C4.07729 17.0064 3.50659 17.0006 2.93164 17.0006V17.0014Z" fill="black"/>
<path d="M7.07946 4.84457C7.06927 2.18959 9.2663 0.0124812 11.9678 -6.98105e-06C14.6922 -0.0124952 16.9071 2.14047 16.919 4.81377C16.9317 7.46792 14.7304 9.64836 12.0306 9.65751C9.30112 9.66667 7.08965 7.51621 7.07861 4.84374L7.07946 4.84457Z" fill="black"/>
<path d="M12.5385 22C12.5385 21.1042 12.5317 20.2742 12.5486 19.445C12.5503 19.3617 12.6794 19.2476 12.7754 19.2052C13.9227 18.7015 15.1304 18.3959 16.3711 18.2278C18.9257 17.8823 21.4616 18.0696 23.9992 18.5175V21.2466C20.1274 20.6122 16.3159 20.6829 12.5376 21.9992L12.5385 22Z" fill="black"/>
<path d="M11.414 21.98C7.68493 20.6854 3.87346 20.6072 0 21.2474V18.5058C0.70828 18.4068 1.42335 18.2902 2.14352 18.2094C3.71465 18.0321 5.29087 17.9921 6.86794 18.1395C8.38386 18.281 9.85308 18.6099 11.251 19.2135C11.3427 19.2526 11.4522 19.3825 11.4539 19.4716C11.4684 20.2708 11.4607 21.0709 11.4582 21.8701C11.4582 21.8976 11.4369 21.9251 11.4149 21.98H11.414Z" fill="black"/>
</g>
<defs>
<clipPath id="clip0_418_101">
<rect width="24" height="22" fill="white"/>
</clipPath>
</defs>
</svg>
