<svg width="51" height="61" viewBox="0 0 51 61" fill="none" xmlns="http://www.w3.org/2000/svg">
<g clip-path="url(#clip0_367_187)">
<path d="M38.6585 0C39.1338 0.219349 39.6533 0.37752 40.0785 0.671478C41.1453 1.41159 41.5927 2.50088 41.5927 3.7931C41.5927 18.4253 41.5971 33.0576 41.5897 47.6898C41.5897 49.952 40.0873 51.4635 37.8566 51.465C26.482 51.471 15.106 51.471 3.73151 51.465C1.49633 51.465 0.00866538 49.9535 0.00572242 47.6883C-0.00310646 40.4811 0.00130798 33.274 0.00572242 26.0668C0.00572242 25.8325 0.0263231 25.5848 0.0998971 25.3654C0.270589 24.8566 0.667888 24.6029 1.17849 24.6059C1.68909 24.6089 2.09228 24.8611 2.24679 25.3759C2.33066 25.6534 2.34685 25.9608 2.34685 26.2548C2.35273 33.3023 2.35126 40.3513 2.35126 47.3989C2.35126 48.7239 2.7103 49.0835 4.0361 49.0835C15.2149 49.0835 26.3952 49.0835 37.5741 49.0835C38.8793 49.0835 39.2412 48.712 39.2412 47.375C39.2412 32.9412 39.2412 18.5074 39.2412 4.07363C39.2412 2.75007 38.8734 2.38151 37.5579 2.38151C26.379 2.38151 15.1987 2.38151 4.01992 2.38151C2.70736 2.38151 2.35126 2.7456 2.35126 4.08258C2.35126 7.75631 2.35126 11.4285 2.35126 15.1023C2.35126 15.2604 2.35567 15.4201 2.34979 15.5783C2.31594 16.3826 1.81711 16.9302 1.14023 16.9078C0.478067 16.8854 0.0277946 16.3587 0.00130798 15.5723C-0.00163498 15.4738 0.00130798 15.3739 0.00130798 15.2739C0.00130798 11.5017 0.00130798 7.72945 0.00130798 3.95724C0.00277946 1.86969 0.841522 0.713258 2.79418 0.0895303C2.84715 0.0716243 2.89276 0.0298434 2.94279 0C14.8485 0 26.7543 0 38.6585 0Z" fill="#242451"/>
<path d="M50.9996 34.2468C50.9996 41.8121 50.9996 49.3775 50.9996 56.9428C50.9996 59.566 49.5914 61 47.0163 61C35.0326 61 23.0488 61 11.0666 61C10.0042 61 9.42735 60.5852 9.41999 59.8167C9.41263 59.0482 9.99681 58.617 11.0504 58.617C23.0135 58.617 34.9781 58.617 46.9412 58.617C48.3024 58.617 48.6496 58.2678 48.6496 56.895C48.6496 41.7047 48.6496 26.5159 48.6511 11.3256C48.6511 11.0495 48.6482 10.766 48.7011 10.4974C48.8203 9.90802 49.3295 9.5111 49.8798 9.54094C50.4375 9.57079 50.898 10.005 50.979 10.5989C51.0084 10.8138 50.9996 11.0346 50.9996 11.2525C50.9996 18.9163 50.9996 26.5815 50.9996 34.2453V34.2468Z" fill="#242451"/>
<path d="M46.2952 29.4361C46.2952 37.0208 46.2952 44.6055 46.2952 52.1917C46.2952 54.8075 44.8826 56.2385 42.3016 56.2385C31.9042 56.2385 21.5067 56.2385 11.1092 56.2385C10.9532 56.2385 10.7958 56.2444 10.6398 56.2355C9.91878 56.1922 9.41406 55.7028 9.41406 55.0522C9.41406 54.4285 9.89524 53.9316 10.5795 53.8644C10.7737 53.845 10.9709 53.8555 11.1666 53.8555C21.5243 53.8555 31.8836 53.8555 42.2413 53.8555C43.6009 53.8555 43.9453 53.5063 43.9453 52.1305C43.9453 36.9208 43.9453 21.7111 43.9482 6.50139C43.9482 6.22534 43.9497 5.94182 44.0115 5.67473C44.1351 5.14202 44.6089 4.78091 45.121 4.78091C45.6331 4.78091 46.1069 5.14202 46.229 5.67622C46.2908 5.94182 46.2923 6.22683 46.2923 6.50288C46.2952 14.1473 46.2952 21.7917 46.2952 29.4361Z" fill="#242451"/>
<path d="M13.4301 8.81574C15.1929 8.81574 16.9542 8.81276 18.7171 8.81574C19.7824 8.81873 20.2077 9.25145 20.2092 10.3422C20.2121 13.9354 20.2136 17.53 20.2092 21.1232C20.2092 22.2065 19.7795 22.6318 18.7009 22.6333C15.1576 22.6362 11.6128 22.6362 8.06946 22.6333C6.99822 22.6333 6.58473 22.205 6.58326 21.1068C6.58032 17.5136 6.58032 13.919 6.58326 10.3258C6.58326 9.24101 7.00705 8.81873 8.08564 8.81574C9.8676 8.81126 11.6496 8.81574 13.4315 8.81574H13.4301ZM17.818 20.2264V11.2465H8.9597V20.2264H17.818Z" fill="#242451"/>
<path d="M27.6549 32.0489C25.4639 32.0489 23.2714 32.0608 21.0804 32.0369C20.7463 32.034 20.3593 31.9519 20.0915 31.7654C19.3661 31.261 19.5265 30.121 20.3446 29.7838C20.5388 29.7047 20.7625 29.6704 20.9744 29.6704C25.4153 29.6644 29.8577 29.6629 34.2987 29.6689C35.1565 29.6689 35.673 30.1553 35.6524 30.8925C35.6318 31.6012 35.1271 32.0429 34.2884 32.0459C32.215 32.0534 30.1403 32.0489 28.0669 32.0489C27.9301 32.0489 27.7932 32.0489 27.6564 32.0489H27.6549Z" fill="#242451"/>
<path d="M27.6251 41.1034C25.4723 41.1034 23.321 41.1064 21.1682 41.0989C20.9166 41.0989 20.6532 41.084 20.4178 41.0079C19.9189 40.8452 19.6467 40.4588 19.6379 39.935C19.6291 39.3844 19.9086 38.992 20.4281 38.8084C20.5914 38.7502 20.7724 38.7249 20.946 38.7249C25.4076 38.7204 29.8676 38.7159 34.3291 38.7249C35.2827 38.7264 35.8418 39.4336 35.6005 40.2708C35.446 40.8035 34.984 41.1004 34.2585 41.1019C32.0469 41.1064 29.8367 41.1034 27.6251 41.1034Z" fill="#242451"/>
<path d="M10.4265 31.2864C11.5271 30.1598 12.5056 29.1585 13.4827 28.1573C13.8579 27.7738 14.3435 27.5485 14.8056 27.8111C15.1337 27.9976 15.4442 28.4095 15.5295 28.778C15.5987 29.072 15.4045 29.5346 15.1779 29.7763C13.9345 31.0969 12.6572 32.3846 11.3682 33.6589C10.7752 34.2453 10.1572 34.2319 9.55092 33.6455C8.82842 32.9471 8.12064 32.2309 7.43346 31.4982C6.90373 30.9327 6.90079 30.2135 7.3746 29.7435C7.85136 29.2719 8.54443 29.2913 9.10359 29.8404C9.55092 30.2791 9.95263 30.7641 10.4279 31.2864H10.4265Z" fill="#242451"/>
<path d="M10.4503 40.3677C11.5347 39.2561 12.5206 38.2354 13.5183 37.2252C13.8744 36.8656 14.3438 36.6313 14.7911 36.9029C15.1193 37.1029 15.4503 37.4983 15.5254 37.8609C15.5901 38.1742 15.3827 38.6488 15.1428 38.9039C13.9156 40.2126 12.6472 41.4824 11.3744 42.7478C10.7961 43.3222 10.1442 43.3163 9.55707 42.7463C8.83605 42.0464 8.12974 41.3287 7.43961 40.599C6.90841 40.0365 6.89811 39.3187 7.37193 38.8442C7.86046 38.3548 8.52262 38.3742 9.09944 38.9353C9.54824 39.3725 9.9632 39.847 10.4532 40.3692L10.4503 40.3677Z" fill="#242451"/>
<path d="M29.6896 11.1988C28.4167 11.1988 27.1439 11.2032 25.8725 11.1973C25.0073 11.1928 24.4658 10.7422 24.4496 10.0334C24.432 9.30222 24.9897 8.82025 25.8814 8.81726C28.4462 8.81278 31.011 8.81278 33.5757 8.81726C34.4366 8.81875 34.9854 9.27536 35.0045 9.98116C35.0237 10.7034 34.4557 11.1928 33.5684 11.1973C32.2764 11.2032 30.9845 11.1988 29.6925 11.1988H29.6896Z" fill="#242451"/>
<path d="M29.7294 14.5368C31.0611 14.5368 32.3928 14.5188 33.723 14.5427C34.6809 14.5606 35.2519 15.3873 34.8928 16.196C34.678 16.6795 34.2763 16.9123 33.7672 16.9138C31.0655 16.9212 28.3639 16.9272 25.6622 16.9093C24.9398 16.9048 24.4424 16.3751 24.4468 15.72C24.4512 15.0665 24.9501 14.5561 25.6755 14.5442C27.0263 14.5218 28.3771 14.5382 29.7279 14.5368H29.7294Z" fill="#242451"/>
<path d="M29.7295 22.6362C28.4184 22.6362 27.1059 22.6437 25.7948 22.6333C25.0488 22.6273 24.5705 22.2528 24.4646 21.6305C24.3336 20.8576 24.9178 20.2607 25.8375 20.2562C28.0108 20.2488 30.1842 20.2532 32.3561 20.2532C32.7873 20.2532 33.2184 20.2458 33.6481 20.2547C34.4545 20.2726 34.9945 20.7487 35.0004 21.4365C35.0063 22.1244 34.4662 22.6243 33.6643 22.6318C32.3532 22.6437 31.0406 22.6348 29.7295 22.6348V22.6362Z" fill="#242451"/>
<path d="M2.33906 21.0889C2.31993 21.7096 1.74605 22.2632 1.14422 22.2438C0.529139 22.2244 -0.00942289 21.6484 0.00823486 21.0307C0.0258926 20.392 0.567397 19.8757 1.20013 19.8892C1.82551 19.9041 2.35672 20.4637 2.33759 21.0874L2.33906 21.0889Z" fill="#242451"/>
<path d="M7.04519 55.0791C7.02606 55.7043 6.46248 56.2474 5.85034 56.228C5.23232 56.2101 4.69523 55.6386 4.71436 55.0194C4.73349 54.3941 5.30001 53.8465 5.90773 53.8659C6.52134 53.8853 7.06284 54.4628 7.04371 55.0791H7.04519Z" fill="#242451"/>
</g>
<defs>
<clipPath id="clip0_367_187">
<rect width="51" height="61" fill="white"/>
</clipPath>
</defs>
</svg>
