<svg width="28" height="24" viewBox="0 0 28 24" fill="none" xmlns="http://www.w3.org/2000/svg">
<g clip-path="url(#clip0_418_98)">
<path d="M24.1864 7.96164C24.1864 8.11183 24.1864 8.21529 24.1864 8.31875C24.1864 11.688 24.184 15.058 24.1912 18.4272C24.1912 18.665 24.1315 18.7877 23.92 18.9045C23.2559 19.2699 22.9258 19.8815 22.9091 20.6592C22.8908 21.5244 22.8972 22.3905 22.9067 23.2566C22.9123 23.7455 23.1692 23.995 23.6432 23.9967C24.429 24 25.2139 24.0009 25.9997 23.9967C26.4785 23.9942 26.7171 23.7489 26.7203 23.2474C26.7258 22.3922 26.7266 21.5361 26.7203 20.6809C26.7139 19.8407 26.3369 19.2399 25.6355 18.8427C25.5496 18.7943 25.4621 18.6483 25.4621 18.5465C25.4533 14.9262 25.4557 11.3067 25.4509 7.68629C25.4509 7.49856 25.5082 7.41178 25.6736 7.34921C26.2805 7.11892 26.8801 6.87027 27.4854 6.63665C27.7828 6.5215 27.9809 6.3271 27.9999 5.9825C28.0166 5.67878 27.8313 5.43932 27.4838 5.30081C23.0968 3.54779 18.7114 1.79226 14.3197 0.0534203C14.12 -0.0258454 13.8401 -0.0141641 13.6381 0.065936C9.2654 1.7981 4.8991 3.54695 0.530413 5.28997C0.225807 5.41178 0.0126629 5.60369 0.000732422 5.96498C-0.00960541 6.27203 0.168545 6.49814 0.527233 6.64165C4.90387 8.39218 9.27972 10.1435 13.6619 11.879C13.8623 11.9583 14.1415 11.9516 14.3435 11.8724C17.5208 10.62 20.691 9.34921 23.8627 8.08262C23.9534 8.04591 24.0456 8.01337 24.1872 7.9608L24.1864 7.96164Z" fill="black"/>
<path d="M22.9035 9.8949C21.7893 10.3388 20.7235 10.7618 19.6586 11.1873C18.0544 11.8281 16.4471 12.4623 14.8477 13.1173C14.2687 13.3542 13.7176 13.3467 13.1402 13.1139C10.6015 12.0901 8.05808 11.0789 5.51703 10.0643C5.38899 10.0134 5.26015 9.96415 5.09552 9.90074V10.2445C5.09552 12.5399 5.09552 14.8352 5.09552 17.1306C5.09552 17.7172 5.183 17.8498 5.70314 18.0576C8.32769 19.1072 10.953 20.1536 13.576 21.2082C13.8615 21.3233 14.1192 21.3275 14.4095 21.2115C17.0412 20.1511 19.6761 19.1031 22.311 18.0509C22.812 17.8507 22.9043 17.713 22.9043 17.1465C22.9043 14.8511 22.9043 12.5557 22.9043 10.2604C22.9043 10.1569 22.9043 10.0534 22.9043 9.8949H22.9035Z" fill="black"/>
</g>
<defs>
<clipPath id="clip0_418_98">
<rect width="28" height="24" fill="white" transform="matrix(-1 0 0 1 28 0)"/>
</clipPath>
</defs>
</svg>
